<svg width="160" height="55" viewBox="0 0 160 55" fill="none" xmlns="http://www.w3.org/2000/svg">
<path d="M94.6066 52.2149C93.5679 52.2149 92.6605 51.9702 91.8844 51.4806C91.1202 50.9792 90.5949 50.3046 90.3083 49.4569L92.0635 48.6151C92.3142 49.1643 92.6605 49.5942 93.1022 49.9046C93.5559 50.215 94.0574 50.3702 94.6066 50.3702C95.0365 50.3702 95.3767 50.2747 95.6275 50.0837C95.8782 49.8927 96.0036 49.6419 96.0036 49.3315C96.0036 49.1405 95.9498 48.9852 95.8424 48.8658C95.7469 48.7345 95.6096 48.627 95.4305 48.5435C95.2633 48.448 95.0782 48.3703 94.8753 48.3106L93.2813 47.8629C92.4575 47.6241 91.8307 47.26 91.4008 46.7704C90.9829 46.2809 90.774 45.7018 90.774 45.0332C90.774 44.4362 90.9232 43.9169 91.2217 43.4751C91.5322 43.0214 91.956 42.6692 92.4933 42.4184C93.0425 42.1677 93.6694 42.0423 94.3738 42.0423C95.2932 42.0423 96.105 42.2632 96.8095 42.705C97.5139 43.1468 98.0154 43.7676 98.3139 44.5676L96.5229 45.4093C96.3558 44.9675 96.0752 44.6153 95.6812 44.3527C95.2872 44.09 94.8454 43.9586 94.3559 43.9586C93.9619 43.9586 93.6515 44.0482 93.4246 44.2273C93.1977 44.4064 93.0843 44.6392 93.0843 44.9258C93.0843 45.1049 93.1321 45.2601 93.2276 45.3914C93.3231 45.5227 93.4544 45.6302 93.6216 45.7138C93.8007 45.7974 94.0037 45.875 94.2305 45.9466L95.7886 46.4122C96.5886 46.651 97.2035 47.0092 97.6333 47.4868C98.0751 47.9644 98.296 48.5494 98.296 49.2419C98.296 49.827 98.1408 50.3464 97.8303 50.8001C97.5199 51.2418 97.0901 51.5881 96.5408 51.8388C95.9916 52.0895 95.3469 52.2149 94.6066 52.2149ZM103.609 52.2149C102.654 52.2149 101.782 51.994 100.994 51.5523C100.218 51.1105 99.5975 50.5075 99.1318 49.7434C98.6781 48.9793 98.4513 48.1077 98.4513 47.1286C98.4513 46.1496 98.6781 45.278 99.1318 44.5138C99.5975 43.7497 100.218 43.1468 100.994 42.705C101.771 42.2632 102.642 42.0423 103.609 42.0423C104.564 42.0423 105.43 42.2632 106.206 42.705C106.982 43.1468 107.597 43.7497 108.051 44.5138C108.516 45.266 108.749 46.1376 108.749 47.1286C108.749 48.1077 108.516 48.9793 108.051 49.7434C107.585 50.5075 106.964 51.1105 106.188 51.5523C105.412 51.994 104.552 52.2149 103.609 52.2149ZM103.609 50.0658C104.135 50.0658 104.594 49.9404 104.988 49.6897C105.394 49.4389 105.711 49.0927 105.937 48.6509C106.176 48.1972 106.296 47.6898 106.296 47.1286C106.296 46.5555 106.176 46.0541 105.937 45.6242C105.711 45.1825 105.394 44.8362 104.988 44.5855C104.594 44.3228 104.135 44.1915 103.609 44.1915C103.072 44.1915 102.6 44.3228 102.194 44.5855C101.788 44.8362 101.466 45.1825 101.227 45.6242C101 46.0541 100.887 46.5555 100.887 47.1286C100.887 47.6898 101 48.1972 101.227 48.6509C101.466 49.0927 101.788 49.4389 102.194 49.6897C102.6 49.9404 103.072 50.0658 103.609 50.0658ZM109.275 52V38.4425H111.621V52H109.275ZM116.008 52.2149C115.256 52.2149 114.599 52.0478 114.038 51.7134C113.489 51.3791 113.065 50.9135 112.766 50.3165C112.48 49.7195 112.336 49.0211 112.336 48.2211V42.2572H114.683V48.0241C114.683 48.43 114.76 48.7882 114.915 49.0987C115.083 49.3972 115.315 49.6359 115.614 49.815C115.924 49.9822 116.271 50.0658 116.653 50.0658C117.035 50.0658 117.375 49.9822 117.673 49.815C117.972 49.6359 118.205 49.3912 118.372 49.0808C118.539 48.7703 118.623 48.4002 118.623 47.9704V42.2572H120.969V52H118.748V50.0837L118.945 50.424C118.718 51.0209 118.342 51.4687 117.817 51.7672C117.303 52.0657 116.7 52.2149 116.008 52.2149ZM126.338 52.1075C125.239 52.1075 124.385 51.809 123.777 51.212C123.18 50.6031 122.881 49.7494 122.881 48.6509V44.3527H121.198V42.2572H121.377C121.854 42.2572 122.224 42.1319 122.487 41.8811C122.75 41.6304 122.881 41.2663 122.881 40.7887V40.0365H125.227V42.2572H127.466V44.3527H125.227V48.5256C125.227 48.8479 125.281 49.1225 125.388 49.3494C125.508 49.5763 125.687 49.7494 125.926 49.8688C126.176 49.9882 126.493 50.0479 126.875 50.0479C126.958 50.0479 127.054 50.0419 127.161 50.03C127.281 50.018 127.394 50.0061 127.502 49.9941V52C127.335 52.0239 127.144 52.0478 126.929 52.0716C126.714 52.0955 126.517 52.1075 126.338 52.1075ZM128.041 52V42.2572H130.387V52H128.041ZM128.041 41.1648V38.6574H130.387V41.1648H128.041ZM136.063 52.2149C135.108 52.2149 134.236 51.994 133.448 51.5523C132.672 51.1105 132.051 50.5075 131.586 49.7434C131.132 48.9793 130.905 48.1077 130.905 47.1286C130.905 46.1496 131.132 45.278 131.586 44.5138C132.051 43.7497 132.672 43.1468 133.448 42.705C134.224 42.2632 135.096 42.0423 136.063 42.0423C137.018 42.0423 137.884 42.2632 138.66 42.705C139.436 43.1468 140.051 43.7497 140.505 44.5138C140.97 45.266 141.203 46.1376 141.203 47.1286C141.203 48.1077 140.97 48.9793 140.505 49.7434C140.039 50.5075 139.418 51.1105 138.642 51.5523C137.866 51.994 137.006 52.2149 136.063 52.2149ZM136.063 50.0658C136.588 50.0658 137.048 49.9404 137.442 49.6897C137.848 49.4389 138.165 49.0927 138.391 48.6509C138.63 48.1972 138.75 47.6898 138.75 47.1286C138.75 46.5555 138.63 46.0541 138.391 45.6242C138.165 45.1825 137.848 44.8362 137.442 44.5855C137.048 44.3228 136.588 44.1915 136.063 44.1915C135.526 44.1915 135.054 44.3228 134.648 44.5855C134.242 44.8362 133.92 45.1825 133.681 45.6242C133.454 46.0541 133.341 46.5555 133.341 47.1286C133.341 47.6898 133.454 48.1972 133.681 48.6509C133.92 49.0927 134.242 49.4389 134.648 49.6897C135.054 49.9404 135.526 50.0658 136.063 50.0658ZM141.729 52V42.2572H143.932V44.1736L143.752 43.8333C143.979 43.2482 144.349 42.8065 144.863 42.508C145.388 42.1975 145.997 42.0423 146.69 42.0423C147.406 42.0423 148.039 42.1975 148.588 42.508C149.149 42.8184 149.585 43.2542 149.895 43.8154C150.206 44.3646 150.361 45.0034 150.361 45.7317V52H148.015V46.2869C148.015 45.8571 147.931 45.4869 147.764 45.1765C147.597 44.8661 147.364 44.6273 147.066 44.4601C146.779 44.281 146.439 44.1915 146.045 44.1915C145.663 44.1915 145.323 44.281 145.024 44.4601C144.726 44.6273 144.493 44.8661 144.326 45.1765C144.158 45.4869 144.075 45.8571 144.075 46.2869V52H141.729ZM154.799 52.2149C153.76 52.2149 152.852 51.9702 152.076 51.4806C151.312 50.9792 150.787 50.3046 150.5 49.4569L152.255 48.6151C152.506 49.1643 152.852 49.5942 153.294 49.9046C153.748 50.215 154.249 50.3702 154.799 50.3702C155.228 50.3702 155.569 50.2747 155.819 50.0837C156.07 49.8927 156.195 49.6419 156.195 49.3315C156.195 49.1405 156.142 48.9852 156.034 48.8658C155.939 48.7345 155.801 48.627 155.622 48.5435C155.455 48.448 155.27 48.3703 155.067 48.3106L153.473 47.8629C152.649 47.6241 152.023 47.26 151.593 46.7704C151.175 46.2809 150.966 45.7018 150.966 45.0332C150.966 44.4362 151.115 43.9169 151.414 43.4751C151.724 43.0214 152.148 42.6692 152.685 42.4184C153.234 42.1677 153.861 42.0423 154.566 42.0423C155.485 42.0423 156.297 42.2632 157.001 42.705C157.706 43.1468 158.207 43.7676 158.506 44.5676L156.715 45.4093C156.548 44.9675 156.267 44.6153 155.873 44.3527C155.479 44.09 155.037 43.9586 154.548 43.9586C154.154 43.9586 153.843 44.0482 153.617 44.2273C153.39 44.4064 153.276 44.6392 153.276 44.9258C153.276 45.1049 153.324 45.2601 153.419 45.3914C153.515 45.5227 153.646 45.6302 153.814 45.7138C153.993 45.7974 154.196 45.875 154.422 45.9466L155.981 46.4122C156.781 46.651 157.395 47.0092 157.825 47.4868C158.267 47.9644 158.488 48.5494 158.488 49.2419C158.488 49.827 158.333 50.3464 158.022 50.8001C157.712 51.2418 157.282 51.5881 156.733 51.8388C156.184 52.0895 155.539 52.2149 154.799 52.2149Z" fill="#093890"/>
<path d="M0 8.39536H7.13245V19.2754H18.1736V8.39536H25.3061V36.5625H18.1736V25.1989H7.13245V36.5625H0V8.39536Z" fill="#093890"/>
<path d="M33.3965 37.1669C30.9787 37.1669 29.0176 36.5893 27.5132 35.4342C26.0357 34.2522 26.0432 32.6134 26.0432 30.518C26.0432 28.342 26.0089 26.6764 27.4327 25.5213C28.8833 24.3393 30.9519 23.7482 33.6383 23.7482C34.686 23.7482 35.7337 23.8691 36.7814 24.1109C37.8291 24.3258 38.729 24.6213 39.4812 24.9974V24.5945C39.4812 22.5259 37.7888 21.4917 34.4039 21.4917C32.0399 21.4917 29.8773 21.9483 27.9162 22.8617V17.9859C28.7759 17.5829 29.9042 17.2605 31.3011 17.0188C32.698 16.7501 34.1487 16.6158 35.6531 16.6158C39.2529 16.6158 41.9662 17.3411 43.793 18.7918C45.6466 20.2156 46.5734 22.217 46.5734 24.796V36.5625H39.9245V34.9103C39.1992 35.6088 38.2858 36.1595 37.1844 36.5625C36.0829 36.9654 34.8203 37.1669 33.3965 37.1669ZM35.4919 32.8149C36.3247 32.8149 37.1038 32.6537 37.8291 32.3314C38.5544 31.9821 39.1051 31.5389 39.4812 31.0016V29.3091C38.3261 28.5301 37.0097 28.1405 35.5322 28.1405C34.592 28.1405 33.8666 28.342 33.3562 28.745C32.8458 29.148 32.5906 29.739 32.5906 30.518C32.5906 31.2434 32.8324 31.8075 33.3159 32.2105C33.8263 32.6134 34.5517 32.8149 35.4919 32.8149Z" fill="#093890"/>
<path d="M47.1687 17.2202H54.0191V19.638C54.7713 18.7784 55.8324 18.1202 57.2025 17.6635C58.5726 17.1799 59.3442 16.9382 61.0097 16.9382V22.3782C59.2367 22.3782 58.4114 22.6334 57.0413 23.1438C55.6981 23.6542 54.7713 24.4199 54.2609 25.4407V36.5625H47.1687V17.2202Z" fill="#093890"/>
<path d="M65.205 15.3875C64.1304 15.3875 63.2304 15.0383 62.5051 14.3398C61.7798 13.6413 61.4171 12.7548 61.4171 11.6803C61.4171 10.6325 61.7798 9.75946 62.5051 9.06099C63.2304 8.33566 64.1304 7.97299 65.205 7.97299C66.2527 7.97299 67.1392 8.33566 67.8645 9.06099C68.6167 9.75946 68.9928 10.6325 68.9928 11.6803C68.9928 12.728 68.6167 13.6145 67.8645 14.3398C67.1392 15.0383 66.2527 15.3875 65.205 15.3875ZM62.4051 17.2202H69.4973V36.5625H62.4051V17.2202Z" fill="#093890"/>
<path d="M93.688 17.2202H100.78L103.883 28.3017L106.986 17.2202H112.708L115.811 28.3017L118.913 17.2202H126.006L119.518 36.5625H113.151L109.847 25.6825L106.542 36.5625H100.176L93.688 17.2202Z" fill="#093890"/>
<path d="M128.114 17.2202H135.206V26.8914V36.5625H128.114V17.2202Z" fill="#093890"/>
<path d="M136.748 17.2202H143.599V19.356C144.432 18.4426 145.439 17.7575 146.621 17.3008C147.803 16.8441 149.039 16.6158 150.328 16.6158C153.042 16.6158 155.043 17.3277 156.332 18.7515C157.649 20.1484 158.307 22.0558 158.307 24.4736V36.5625H151.215V25.4004C151.215 23.2244 150.221 22.1364 148.233 22.1364C147.319 22.1364 146.487 22.3513 145.734 22.7811C144.982 23.1841 144.109 23.8154 143.599 24.6751V36.5625H136.748V26.8914V17.2202Z" fill="#093890"/>
<path d="M72.1294 17.2202H78.9798V19.356C79.8126 18.4426 80.82 17.7575 82.002 17.3008C83.184 16.8442 84.4198 16.6158 85.7093 16.6158C88.4226 16.6158 90.424 17.3277 91.7134 18.7515C93.0298 20.1484 93.688 22.0558 93.688 24.4736V36.5625H86.5958V25.4004C86.5958 23.2244 85.6018 22.1364 83.6139 22.1364C82.7005 22.1364 81.8677 22.3513 81.1155 22.7811C80.3633 23.1841 79.732 23.8154 79.2216 24.6751V36.5625H72.1294V26.8914V17.2202Z" fill="#093890"/>
<path d="M69.7132 7.66426C73.3753 1.32135 85.0855 -1.96208 80.9066 10.2761C75.6831 25.5737 62.6708 48.3337 52.9232 45.7219C47.5132 44.2723 50.1532 38.6722 51.0575 37.8865" stroke="#F4AF01" stroke-width="2.23868"/>
</svg>
